<?xml version="1.0" encoding="UTF-8" standalone="no"?>
<svg
   viewBox="0 0 16 16"
   style="enable-background:new 0 0 16 16"
   xml:space="preserve"
   version="1.1"
   id="svg12"
   sodipodi:docname="bsky.app.svg"
   inkscape:version="1.2.2 (732a01da63, 2022-12-09)"
   xmlns:inkscape="http://www.inkscape.org/namespaces/inkscape"
   xmlns:sodipodi="http://sodipodi.sourceforge.net/DTD/sodipodi-0.dtd"
   xmlns="http://www.w3.org/2000/svg"
   xmlns:svg="http://www.w3.org/2000/svg"><defs
     id="defs16" /><sodipodi:namedview
     id="namedview14"
     pagecolor="#ffffff"
     bordercolor="#000000"
     borderopacity="0.25"
     inkscape:showpageshadow="2"
     inkscape:pageopacity="0.0"
     inkscape:pagecheckerboard="true"
     inkscape:deskcolor="#d1d1d1"
     showgrid="false"
     inkscape:zoom="64.1875"
     inkscape:cx="5.865628"
     inkscape:cy="7.9922103"
     inkscape:window-width="3840"
     inkscape:window-height="2054"
     inkscape:window-x="-11"
     inkscape:window-y="-11"
     inkscape:window-maximized="1"
     inkscape:current-layer="svg12" /><path
     d="M8.7 5110.8c-4.5-1.2-6.6-3.5-8.1-8.6-.8-2.8-.8-11.5 0-21.2.1-.6.2-2.3.3-3.8.1-1.4.3-3.2.4-3.8.1-.6.2-2.3.3-3.8.2-2.8.8-8 1-9.4.1-.5.2-1.7.3-2.8.2-1.7.4-3.2 1-5.6.4-1.8 2.1-5.5 3.6-7.9 3.5-5.5 9.2-9.9 15.4-12.1.9-.3 1.9-.7 2.3-.9 1-.4 5.9-1.5 8.2-1.8 1.1-.1 3.7-.3 5.8-.3 2.1 0 3.7-.1 3.6-.2-.2-.1-2.1-.6-6.5-1.4-.4-.1-1.5-.4-2.6-.7-1.1-.3-2.4-.7-3-.8-1.6-.5-5.9-2.2-8-3.4-3-1.6-5.7-3.9-7.2-6.2-1.6-2.5-2-3.7-2.2-7.1-.4-5.9 3.1-13.5 10.2-22.4 7.3-9.1 14.5-14.8 21.8-17.2 2.9-1 7.7-1 10.2-.1 5.9 2.1 10.9 7.5 15.5 16.8 2.5 5.1 6.2 14.9 8.1 21.8.6 2.2 1 2.5 1.3 1.1.3-1.3.9-3.3 3-10.4 4.9-16.2 10-24.8 17-27.9 2.4-1.1 3.6-1.3 7.2-1.3 3.5 0 6.6.9 10.7 3 3 1.6 8.8 5.3 9.7 6.3.1.1.8.7 1.6 1.3 1.7 1.4 5 4.7 6.7 6.9.7.8 1.4 1.8 1.7 2.1.9 1.1 4 5.9 4 6.2 0 .2.2.6.5.8.3.3.9 1.9 1.5 3.5 3.5 10.2-.4 18.3-11.7 23.9-4.3 2.1-9.6 3.9-14.3 4.7-2.4.5-1.8.6 2.2.7 8.3 0 15.4 1.7 21.7 5.3 7.9 4.4 13.8 13 14.7 21.3.1 1.2.3 2.4.3 2.5.1.2.2.9.7 5.5.1.8.2 2 .3 2.8.1.8.2 2.4.4 3.7.1 1.3.2 2.8.3 3.4.1.6.2 2.5.3 4.1.1 1.6.3 3.5.3 4.1.7 6.7.9 15.8.4 18.3-.9 5-2.6 8.1-5.5 9.6-6.7 3.4-14.8 1.3-26.8-6.9-4.3-3-5.3-3.7-8.1-6.1-10.5-8.9-22.4-22.5-31.8-36.3-3-4.4-7.2-11.3-7.2-11.8 0-.8-.6-.2-1.3 1.2-.9 1.9-4.4 7.6-6.9 11.1-2.1 3.1-6.9 9.7-7.4 10.2-.2.2-.7.9-1.1 1.4-.5.6-1 1.2-1.1 1.4-.2.2-1.3 1.5-2.4 3-4.1 5-12.2 13.5-16.8 17.6-.6.6-1.4 1.3-1.8 1.6-7.2 6.4-19.1 13.4-25 14.7-1.9.7-6.2.7-7.7.3z"
     style="fill:#ffffff"
     transform="matrix(.1 0 0 -.1 0 512)"
     id="path10" /></svg>
