<?xml version="1.0" encoding="UTF-8" standalone="no"?>
<svg
   enable-background="new 0 0 144.083 144"
   height="144px"
   id="Tumblr"
   version="1.1"
   viewBox="0 0 144.083 144"
   width="144.083px"
   xml:space="preserve"
   sodipodi:docname="Tumblr_Rounded_Solid_icon-icons.com_61554.svg"
   inkscape:version="1.2.2 (732a01da63, 2022-12-09)"
   xmlns:inkscape="http://www.inkscape.org/namespaces/inkscape"
   xmlns:sodipodi="http://sodipodi.sourceforge.net/DTD/sodipodi-0.dtd"
   xmlns="http://www.w3.org/2000/svg"
   xmlns:svg="http://www.w3.org/2000/svg"><defs
     id="defs14" /><sodipodi:namedview
     id="namedview12"
     pagecolor="#ffffff"
     bordercolor="#000000"
     borderopacity="0.25"
     inkscape:showpageshadow="2"
     inkscape:pageopacity="0.0"
     inkscape:pagecheckerboard="0"
     inkscape:deskcolor="#d1d1d1"
     showgrid="false"
     inkscape:zoom="7.1319444"
     inkscape:cx="72.070107"
     inkscape:cy="71.929893"
     inkscape:window-width="3840"
     inkscape:window-height="2054"
     inkscape:window-x="-11"
     inkscape:window-y="-11"
     inkscape:window-maximized="1"
     inkscape:current-layer="Tumblr" /><path
     d="M72.04,14.166C40.1,14.166,14.207,40.06,14.207,72c0,31.939,25.893,57.834,57.833,57.834  c31.941,0,57.835-25.895,57.835-57.834C129.875,40.06,103.981,14.166,72.04,14.166z M93.143,102.717c0,0-3.051,3.562-16.551,3.562  c-11.836,0-17.043-8.22-17.043-14.028c0-6.167,0-26.47,0-26.47h-9.151v-9.646c13.7-3.124,14.632-18.359,14.632-18.359l11.016-0.054  v17.208h17.043v12.769H76.209c0,0,0,17.027,0,22.414c1.795,4.962,6.527,5.442,10.447,4.951c4.094-0.511,6.486-2.375,6.486-2.375  V102.717z"
     id="path9"
     style="fill:#ffffff" /></svg>
